<svg aria-hidden="true" style="position:absolute;width:0;height:0;overflow:hidden" xmlns="http://www.w3.org/2000/svg"><defs>
<symbol id="icon-before1" viewBox="0 0 32 32"><path d="M16.203 9.195c-1.264 0-3.22-1.437-5.28-1.387-2.72.036-5.213 1.577-6.615 4.019-2.823 4.9-.728 12.137 2.025 16.12 1.351 1.939 2.944 4.12 5.056 4.052 2.027-.087 2.787-1.316 5.247-1.316 2.441 0 3.133 1.316 5.28 1.264 2.183-.035 3.568-1.973 4.901-3.931 1.541-2.251 2.181-4.433 2.216-4.553-.052-.017-4.243-1.628-4.293-6.476-.035-4.053 3.307-5.992 3.463-6.079-1.905-2.787-4.831-3.099-5.853-3.168-2.667-.208-4.9 1.453-6.147 1.453zm4.504-4.088c1.124-1.349 1.867-3.236 1.66-5.107-1.609.069-3.549 1.073-4.709 2.424-1.04 1.195-1.939 3.117-1.697 4.952 1.784.139 3.62-.917 4.745-2.268z"/></symbol>
<symbol id="icon-before2" viewBox="0 0 32 32"><path d="M16 2.86c-3.316 0-6.34 1.035-8.571 2.773-2.231 1.737-3.68 4.225-3.68 6.992v1C1.537 14.746 0 17.69 0 21.141c0 4.416 2.512 8 5.749 8V12.624c0-2.072 1.073-3.979 2.915-5.413C10.505 5.775 13.105 4.858 16 4.858c2.893 0 5.493.917 7.336 2.352 1.84 1.436 2.915 3.343 2.915 5.413v16.516c3.237 0 5.749-3.583 5.749-8 0-3.449-1.536-6.393-3.751-7.515v-1c0-2.767-1.448-5.253-3.68-6.992C22.34 3.893 19.316 2.859 16 2.859zm0 8.204-1.5 11.577L13 12.14l-.749 9-.501-1-.5-6-.249 6-.751 1.751-.499-6-.501 4.749-.749-1.249v3.5l-.751-2.813v-6.187a1.897 1.897 0 0 0-1.247-.5h-.002V29.14c.5 0 1-.249 1.249-.749v-4.5l.251.249.751 2.5.249-3 .751 3.751v-4.749l.499 1.249.751 3.5v-4.749l.5.499.751 4.251.749-5.751 1.653 6.48.096-3.98.5-1.499.501 6.249 1.499-6.249.5 5.249 1.251-5.5 1.251 6 .249-4.5.749-1.5.251 5.751 1.251-5.5.749 2.5.251-2.251.499 1v4.5c.251.5.751.749 1.251.749V13.391c-.5 0-1 .251-1.251.5v6.417l-.499 1.333-.251-4.251-.5 3.249-.5-1-.251-3.5-1.249 4.751-.251-1-.749-7.5-.749 6.5-.501 2-1-6.749-1 5.749-.5 1.5z"/></symbol>
<symbol id="icon-after1" viewBox="0 0 32 32"><path d="m14.453 14.96-.917-3.424c.971-.24 3.785-1.401 4.52.675.36 2.243-2.637 2.503-3.603 2.749zm.386 1.751 1.007 3.772c1.157-.304 4.661-.613 4.321-3.135-.577-2.221-4.167-.941-5.328-.637zM32 16c0 8.836-7.164 16-16 16S0 24.836 0 16 7.164 0 16 0s16 7.164 16 16zm-8.455.881c-.244-1.535-1.921-2.793-3.313-2.936.857-.76 1.292-1.868.76-3.317-.804-1.824-2.652-2.213-4.913-1.836l-.728-2.819-1.713.443.715 2.811c-.451.113-.913.211-1.372.341l-.716-2.795-1.713.443.727 2.819c-.369.105-3.46.897-3.46.897l.471 1.836s1.259-.353 1.247-.325c.699-.183 1.028.167 1.181.496l1.997 7.724c.024.224-.016.605-.496.735.028.016-1.247.321-1.247.321l.187 2.14s3.061-.784 3.464-.885l.735 2.851 1.713-.443-.735-2.871c.471-.109.929-.224 1.376-.341l.731 2.855 1.713-.443-.735-2.847c2.643-.643 4.507-2.307 4.125-4.853z"/></symbol>
<symbol id="icon-after2" viewBox="0 0 32 32"><path d="M16 8.407c4.921 0 8.431-4.095 8.173-8.381C21.341-.201 17.414 1.081 16 5.079 14.585 1.08 10.657-.2 7.827.027 7.57 4.312 11.079 8.407 16 8.407zm14.669 9.282c-.185-4.551-3.761-8.483-8.733-8.483-2.253 0-4.315.847-5.936 2.325-1.623-1.48-3.684-2.325-5.936-2.325-4.972 0-8.549 3.932-8.733 8.483C1.011 25.586 7.884 32 16 32s14.989-6.413 14.669-14.311z"/></symbol>
</defs></svg>